<?xml version="1.0" encoding="UTF-8" standalone="no"?>
<!DOCTYPE svg PUBLIC "-//W3C//DTD SVG 1.1//EN"
 "http://www.w3.org/Graphics/SVG/1.1/DTD/svg11.dtd">
<!-- Generated by graphviz version 2.43.0 (0)
 -->
<!-- Title: Device/Device_PyBind_Module.cpp Pages: 1 -->
<svg width="480pt" height="151pt"
 viewBox="0.00 0.00 480.00 151.00" xmlns="http://www.w3.org/2000/svg" xmlns:xlink="http://www.w3.org/1999/xlink">
<g id="graph0" class="graph" transform="scale(1 1) rotate(0) translate(4 147)">
<title>Device/Device_PyBind_Module.cpp</title>
<!-- Node1 -->
<g id="node1" class="node">
<title>Node1</title>
<g id="a_node1"><a xlink:title="Python module for device in PySYCL.">
<polygon fill="#bfbfbf" stroke="black" points="169.5,-112.5 169.5,-142.5 295.5,-142.5 295.5,-112.5 169.5,-112.5"/>
<text text-anchor="start" x="177.5" y="-130.5" font-family="Helvetica,sans-Serif" font-size="10.00">Device/Device_PyBind</text>
<text text-anchor="middle" x="232.5" y="-119.5" font-family="Helvetica,sans-Serif" font-size="10.00">_Module.cpp</text>
</a>
</g>
</g>
<!-- Node2 -->
<g id="node2" class="node">
<title>Node2</title>
<g id="a_node2"><a xlink:title=" ">
<polygon fill="none" stroke="#bfbfbf" points="0,-56.5 0,-75.5 119,-75.5 119,-56.5 0,-56.5"/>
<text text-anchor="middle" x="59.5" y="-63.5" font-family="Helvetica,sans-Serif" font-size="10.00">pybind11/pybind11.h</text>
</a>
</g>
</g>
<!-- Node1&#45;&gt;Node2 -->
<g id="edge1" class="edge">
<title>Node1&#45;&gt;Node2</title>
<path fill="none" stroke="midnightblue" d="M191.5,-112.4C161.87,-102.21 122.27,-88.59 94.2,-78.93"/>
<polygon fill="midnightblue" stroke="midnightblue" points="95.02,-75.51 84.42,-75.57 92.74,-82.13 95.02,-75.51"/>
</g>
<!-- Node3 -->
<g id="node3" class="node">
<title>Node3</title>
<g id="a_node3"><a xlink:title=" ">
<polygon fill="none" stroke="#bfbfbf" points="137.5,-56.5 137.5,-75.5 223.5,-75.5 223.5,-56.5 137.5,-56.5"/>
<text text-anchor="middle" x="180.5" y="-63.5" font-family="Helvetica,sans-Serif" font-size="10.00">pybind11/stl.h</text>
</a>
</g>
</g>
<!-- Node1&#45;&gt;Node3 -->
<g id="edge2" class="edge">
<title>Node1&#45;&gt;Node3</title>
<path fill="none" stroke="midnightblue" d="M220.18,-112.4C212.54,-103.66 202.71,-92.41 194.74,-83.3"/>
<polygon fill="midnightblue" stroke="midnightblue" points="197.28,-80.88 188.07,-75.66 192.01,-85.49 197.28,-80.88"/>
</g>
<!-- Node4 -->
<g id="node4" class="node">
<title>Node4</title>
<g id="a_node4"><a xlink:href="_s_y_c_l___device_8h.html" target="_top" xlink:title="SYCL device selection in PySYCL.">
<polygon fill="none" stroke="black" points="241.5,-56.5 241.5,-75.5 329.5,-75.5 329.5,-56.5 241.5,-56.5"/>
<text text-anchor="middle" x="285.5" y="-63.5" font-family="Helvetica,sans-Serif" font-size="10.00">SYCL_Device.h</text>
</a>
</g>
</g>
<!-- Node1&#45;&gt;Node4 -->
<g id="edge3" class="edge">
<title>Node1&#45;&gt;Node4</title>
<path fill="none" stroke="midnightblue" d="M245.06,-112.4C252.84,-103.66 262.86,-92.41 270.98,-83.3"/>
<polygon fill="midnightblue" stroke="midnightblue" points="273.75,-85.45 277.79,-75.66 268.52,-80.8 273.75,-85.45"/>
</g>
<!-- Node7 -->
<g id="node7" class="node">
<title>Node7</title>
<g id="a_node7"><a xlink:href="_s_y_c_l___device___inquiry_8h.html" target="_top" xlink:title="Collecting SYCL device availability and information.">
<polygon fill="none" stroke="black" points="347,-56.5 347,-75.5 472,-75.5 472,-56.5 347,-56.5"/>
<text text-anchor="middle" x="409.5" y="-63.5" font-family="Helvetica,sans-Serif" font-size="10.00">SYCL_Device_Inquiry.h</text>
</a>
</g>
</g>
<!-- Node1&#45;&gt;Node7 -->
<g id="edge6" class="edge">
<title>Node1&#45;&gt;Node7</title>
<path fill="none" stroke="midnightblue" d="M274.45,-112.4C304.9,-102.16 345.63,-88.47 374.37,-78.81"/>
<polygon fill="midnightblue" stroke="midnightblue" points="375.64,-82.07 384,-75.57 373.41,-75.44 375.64,-82.07"/>
</g>
<!-- Node5 -->
<g id="node5" class="node">
<title>Node5</title>
<g id="a_node5"><a xlink:title=" ">
<polygon fill="none" stroke="#bfbfbf" points="275.5,-0.5 275.5,-19.5 335.5,-19.5 335.5,-0.5 275.5,-0.5"/>
<text text-anchor="middle" x="305.5" y="-7.5" font-family="Helvetica,sans-Serif" font-size="10.00">iostream</text>
</a>
</g>
</g>
<!-- Node4&#45;&gt;Node5 -->
<g id="edge4" class="edge">
<title>Node4&#45;&gt;Node5</title>
<path fill="none" stroke="midnightblue" d="M288.8,-56.08C291.48,-48.85 295.35,-38.41 298.69,-29.4"/>
<polygon fill="midnightblue" stroke="midnightblue" points="302.07,-30.34 302.26,-19.75 295.5,-27.91 302.07,-30.34"/>
</g>
<!-- Node6 -->
<g id="node6" class="node">
<title>Node6</title>
<g id="a_node6"><a xlink:title=" ">
<polygon fill="none" stroke="#bfbfbf" points="363.5,-0.5 363.5,-19.5 435.5,-19.5 435.5,-0.5 363.5,-0.5"/>
<text text-anchor="middle" x="399.5" y="-7.5" font-family="Helvetica,sans-Serif" font-size="10.00">CL/sycl.hpp</text>
</a>
</g>
</g>
<!-- Node4&#45;&gt;Node6 -->
<g id="edge5" class="edge">
<title>Node4&#45;&gt;Node6</title>
<path fill="none" stroke="midnightblue" d="M303.56,-56.44C322.07,-47.68 351.08,-33.94 372.36,-23.86"/>
<polygon fill="midnightblue" stroke="midnightblue" points="373.98,-26.96 381.52,-19.52 370.99,-20.63 373.98,-26.96"/>
</g>
<!-- Node7&#45;&gt;Node5 -->
<g id="edge7" class="edge">
<title>Node7&#45;&gt;Node5</title>
<path fill="none" stroke="midnightblue" d="M392.79,-56.32C376.19,-47.7 350.5,-34.36 331.28,-24.39"/>
<polygon fill="midnightblue" stroke="midnightblue" points="332.66,-21.16 322.17,-19.65 329.43,-27.37 332.66,-21.16"/>
</g>
<!-- Node7&#45;&gt;Node6 -->
<g id="edge8" class="edge">
<title>Node7&#45;&gt;Node6</title>
<path fill="none" stroke="midnightblue" d="M407.85,-56.08C406.52,-48.93 404.62,-38.64 402.96,-29.69"/>
<polygon fill="midnightblue" stroke="midnightblue" points="406.38,-28.95 401.12,-19.75 399.5,-30.22 406.38,-28.95"/>
</g>
</g>
</svg>
