<?xml version="1.0" encoding="UTF-8" standalone="no"?>
<!DOCTYPE svg PUBLIC "-//W3C//DTD SVG 1.1//EN"
 "http://www.w3.org/Graphics/SVG/1.1/DTD/svg11.dtd">
<!-- Generated by graphviz version 2.43.0 (0)
 -->
<!-- Title: Device/Device_PyBind_Module.cpp Pages: 1 -->
<svg width="680pt" height="175pt"
 viewBox="0.00 0.00 679.50 175.00" xmlns="http://www.w3.org/2000/svg" xmlns:xlink="http://www.w3.org/1999/xlink">
<g id="graph0" class="graph" transform="scale(1 1) rotate(0) translate(4 171)">
<title>Device/Device_PyBind_Module.cpp</title>
<!-- Node1 -->
<g id="node1" class="node">
<title>Node1</title>
<g id="a_node1"><a xlink:title="Python module for device in PySYCL.">
<polygon fill="#bfbfbf" stroke="black" points="241,-124.5 241,-166.5 425,-166.5 425,-124.5 241,-124.5"/>
<text text-anchor="start" x="249" y="-150.5" font-family="Segoe UI" font-size="15.00">Device/Device_PyBind</text>
<text text-anchor="middle" x="333" y="-133.5" font-family="Segoe UI" font-size="15.00">_Module.cpp</text>
</a>
</g>
</g>
<!-- Node2 -->
<g id="node2" class="node">
<title>Node2</title>
<g id="a_node2"><a xlink:title=" ">
<polygon fill="none" stroke="#bfbfbf" points="0,-62.5 0,-87.5 180,-87.5 180,-62.5 0,-62.5"/>
<text text-anchor="middle" x="90" y="-71.5" font-family="Segoe UI" font-size="15.00">pybind11/pybind11.h</text>
</a>
</g>
</g>
<!-- Node1&#45;&gt;Node2 -->
<g id="edge1" class="edge">
<title>Node1&#45;&gt;Node2</title>
<path fill="none" stroke="midnightblue" d="M261.73,-124.41C222.99,-113.49 175.96,-100.23 140.93,-90.36"/>
<polygon fill="midnightblue" stroke="midnightblue" points="141.5,-86.88 130.92,-87.54 139.6,-93.62 141.5,-86.88"/>
</g>
<!-- Node3 -->
<g id="node3" class="node">
<title>Node3</title>
<g id="a_node3"><a xlink:title=" ">
<polygon fill="none" stroke="#bfbfbf" points="198,-62.5 198,-87.5 324,-87.5 324,-62.5 198,-62.5"/>
<text text-anchor="middle" x="261" y="-71.5" font-family="Segoe UI" font-size="15.00">pybind11/stl.h</text>
</a>
</g>
</g>
<!-- Node1&#45;&gt;Node3 -->
<g id="edge2" class="edge">
<title>Node1&#45;&gt;Node3</title>
<path fill="none" stroke="midnightblue" d="M311.79,-124.32C301.84,-114.85 290.06,-103.65 280.36,-94.42"/>
<polygon fill="midnightblue" stroke="midnightblue" points="282.75,-91.86 273.09,-87.5 277.92,-96.93 282.75,-91.86"/>
</g>
<!-- Node4 -->
<g id="node4" class="node">
<title>Node4</title>
<g id="a_node4"><a xlink:href="_s_y_c_l___device_8h.html" target="_top" xlink:title="SYCL device selection in PySYCL.">
<polygon fill="none" stroke="black" points="342,-62.5 342,-87.5 468,-87.5 468,-62.5 342,-62.5"/>
<text text-anchor="middle" x="405" y="-71.5" font-family="Segoe UI" font-size="15.00">SYCL_Device.h</text>
</a>
</g>
</g>
<!-- Node1&#45;&gt;Node4 -->
<g id="edge3" class="edge">
<title>Node1&#45;&gt;Node4</title>
<path fill="none" stroke="midnightblue" d="M354.21,-124.32C364.16,-114.85 375.94,-103.65 385.64,-94.42"/>
<polygon fill="midnightblue" stroke="midnightblue" points="388.08,-96.93 392.91,-87.5 383.25,-91.86 388.08,-96.93"/>
</g>
<!-- Node7 -->
<g id="node7" class="node">
<title>Node7</title>
<g id="a_node7"><a xlink:href="_s_y_c_l___device___inquiry_8h.html" target="_top" xlink:title="Collecting SYCL device availability and information.">
<polygon fill="none" stroke="black" points="486.5,-62.5 486.5,-87.5 671.5,-87.5 671.5,-62.5 486.5,-62.5"/>
<text text-anchor="middle" x="579" y="-71.5" font-family="Segoe UI" font-size="15.00">SYCL_Device_Inquiry.h</text>
</a>
</g>
</g>
<!-- Node1&#45;&gt;Node7 -->
<g id="edge6" class="edge">
<title>Node1&#45;&gt;Node7</title>
<path fill="none" stroke="midnightblue" d="M405.15,-124.41C444.54,-113.44 492.38,-100.12 527.9,-90.23"/>
<polygon fill="midnightblue" stroke="midnightblue" points="528.88,-93.59 537.57,-87.54 527,-86.85 528.88,-93.59"/>
</g>
<!-- Node5 -->
<g id="node5" class="node">
<title>Node5</title>
<g id="a_node5"><a xlink:title=" ">
<polygon fill="none" stroke="#bfbfbf" points="395,-0.5 395,-25.5 477,-25.5 477,-0.5 395,-0.5"/>
<text text-anchor="middle" x="436" y="-9.5" font-family="Segoe UI" font-size="15.00">iostream</text>
</a>
</g>
</g>
<!-- Node4&#45;&gt;Node5 -->
<g id="edge4" class="edge">
<title>Node4&#45;&gt;Node5</title>
<path fill="none" stroke="midnightblue" d="M410.98,-62.43C415.05,-54.55 420.56,-43.89 425.37,-34.58"/>
<polygon fill="midnightblue" stroke="midnightblue" points="428.56,-36.02 430.04,-25.53 422.34,-32.81 428.56,-36.02"/>
</g>
<!-- Node6 -->
<g id="node6" class="node">
<title>Node6</title>
<g id="a_node6"><a xlink:title=" ">
<polygon fill="none" stroke="#bfbfbf" points="511,-0.5 511,-25.5 615,-25.5 615,-0.5 511,-0.5"/>
<text text-anchor="middle" x="563" y="-9.5" font-family="Segoe UI" font-size="15.00">CL/sycl.hpp</text>
</a>
</g>
</g>
<!-- Node4&#45;&gt;Node6 -->
<g id="edge5" class="edge">
<title>Node4&#45;&gt;Node6</title>
<path fill="none" stroke="midnightblue" d="M435.46,-62.43C460.38,-52.97 495.82,-39.51 523.02,-29.18"/>
<polygon fill="midnightblue" stroke="midnightblue" points="524.52,-32.36 532.63,-25.53 522.04,-25.81 524.52,-32.36"/>
</g>
<!-- Node7&#45;&gt;Node5 -->
<g id="edge7" class="edge">
<title>Node7&#45;&gt;Node5</title>
<path fill="none" stroke="midnightblue" d="M551.43,-62.43C529.07,-53.05 497.37,-39.75 472.84,-29.46"/>
<polygon fill="midnightblue" stroke="midnightblue" points="474.06,-26.17 463.49,-25.53 471.35,-32.63 474.06,-26.17"/>
</g>
<!-- Node7&#45;&gt;Node6 -->
<g id="edge8" class="edge">
<title>Node7&#45;&gt;Node6</title>
<path fill="none" stroke="midnightblue" d="M575.92,-62.43C573.88,-54.79 571.15,-44.56 568.72,-35.46"/>
<polygon fill="midnightblue" stroke="midnightblue" points="572.03,-34.29 566.08,-25.53 565.27,-36.1 572.03,-34.29"/>
</g>
</g>
</svg>
