<?xml version="1.0" encoding="UTF-8" standalone="no"?>
<!DOCTYPE svg PUBLIC "-//W3C//DTD SVG 1.1//EN"
 "http://www.w3.org/Graphics/SVG/1.1/DTD/svg11.dtd">
<!-- Generated by graphviz version 2.43.0 (0)
 -->
<!-- Title: Device/SYCL_Device_Inquiry.h Pages: 1 -->
<svg width="638pt" height="209pt"
 viewBox="0.00 0.00 637.50 209.00" xmlns="http://www.w3.org/2000/svg" xmlns:xlink="http://www.w3.org/1999/xlink">
<g id="graph0" class="graph" transform="scale(1 1) rotate(0) translate(4 205)">
<title>Device/SYCL_Device_Inquiry.h</title>
<!-- Node1 -->
<g id="node1" class="node">
<title>Node1</title>
<g id="a_node1"><a xlink:title="Collecting SYCL device availability and information.">
<polygon fill="#bfbfbf" stroke="black" points="212,-158.5 212,-200.5 380,-200.5 380,-158.5 212,-158.5"/>
<text text-anchor="start" x="220" y="-184.5" font-family="Segoe UI" font-size="15.00">Device/SYCL_Device</text>
<text text-anchor="middle" x="296" y="-167.5" font-family="Segoe UI" font-size="15.00">_Inquiry.h</text>
</a>
</g>
</g>
<!-- Node2 -->
<g id="node2" class="node">
<title>Node2</title>
<g id="a_node2"><a xlink:href="_device___py_bind___module_8cpp.html" target="_top" xlink:title="Python module for device in PySYCL.">
<polygon fill="none" stroke="black" points="0,-79.5 0,-121.5 184,-121.5 184,-79.5 0,-79.5"/>
<text text-anchor="start" x="8" y="-105.5" font-family="Segoe UI" font-size="15.00">Device/Device_PyBind</text>
<text text-anchor="middle" x="92" y="-88.5" font-family="Segoe UI" font-size="15.00">_Module.cpp</text>
</a>
</g>
</g>
<!-- Node1&#45;&gt;Node2 -->
<g id="edge1" class="edge">
<title>Node1&#45;&gt;Node2</title>
<path fill="none" stroke="midnightblue" d="M233.55,-154.93C205.28,-144.26 172.21,-131.78 145.15,-121.56"/>
<polygon fill="midnightblue" stroke="midnightblue" points="232.34,-158.21 242.93,-158.47 234.81,-151.66 232.34,-158.21"/>
</g>
<!-- Node3 -->
<g id="node3" class="node">
<title>Node3</title>
<g id="a_node3"><a xlink:href="_vector___object_8h.html" target="_top" xlink:title="Vector Object in PySYCL.">
<polygon fill="none" stroke="black" points="202,-88 202,-113 390,-113 390,-88 202,-88"/>
<text text-anchor="middle" x="296" y="-97" font-family="Segoe UI" font-size="15.00">Vector/Vector_Object.h</text>
</a>
</g>
</g>
<!-- Node1&#45;&gt;Node3 -->
<g id="edge2" class="edge">
<title>Node1&#45;&gt;Node3</title>
<path fill="none" stroke="midnightblue" d="M296,-147.9C296,-135.63 296,-122.23 296,-113"/>
<polygon fill="midnightblue" stroke="midnightblue" points="292.5,-148.27 296,-158.27 299.5,-148.27 292.5,-148.27"/>
</g>
<!-- Node5 -->
<g id="node5" class="node">
<title>Node5</title>
<g id="a_node5"><a xlink:href="_vector___operations_8h.html" target="_top" xlink:title="Vector operations in PySYCL. These operations receive two individual vectors and return a single vect...">
<polygon fill="none" stroke="black" points="408.5,-88 408.5,-113 629.5,-113 629.5,-88 408.5,-88"/>
<text text-anchor="middle" x="519" y="-97" font-family="Segoe UI" font-size="15.00">Vector/Vector_Operations.h</text>
</a>
</g>
</g>
<!-- Node1&#45;&gt;Node5 -->
<g id="edge4" class="edge">
<title>Node1&#45;&gt;Node5</title>
<path fill="none" stroke="midnightblue" d="M363.52,-155.19C403.87,-141.25 453.36,-124.16 485.51,-113.06"/>
<polygon fill="midnightblue" stroke="midnightblue" points="362.32,-151.9 354.01,-158.47 364.6,-158.51 362.32,-151.9"/>
</g>
<!-- Node4 -->
<g id="node4" class="node">
<title>Node4</title>
<g id="a_node4"><a xlink:href="_vector___py_bind___module_8cpp.html" target="_top" xlink:title="Python module for vector in PySYCL.">
<polygon fill="none" stroke="black" points="319,-0.5 319,-42.5 495,-42.5 495,-0.5 319,-0.5"/>
<text text-anchor="start" x="327" y="-26.5" font-family="Segoe UI" font-size="15.00">Vector/Vector_PyBind</text>
<text text-anchor="middle" x="407" y="-9.5" font-family="Segoe UI" font-size="15.00">_Module.cpp</text>
</a>
</g>
</g>
<!-- Node3&#45;&gt;Node4 -->
<g id="edge3" class="edge">
<title>Node3&#45;&gt;Node4</title>
<path fill="none" stroke="midnightblue" d="M321.13,-82.07C337.98,-70.38 360.24,-54.94 377.87,-42.71"/>
<polygon fill="midnightblue" stroke="midnightblue" points="319.08,-79.23 312.86,-87.81 323.07,-84.98 319.08,-79.23"/>
</g>
<!-- Node5&#45;&gt;Node4 -->
<g id="edge5" class="edge">
<title>Node5&#45;&gt;Node4</title>
<path fill="none" stroke="midnightblue" d="M493.65,-82.07C476.64,-70.38 454.18,-54.94 436.39,-42.71"/>
<polygon fill="midnightblue" stroke="midnightblue" points="491.77,-85.02 501.99,-87.81 495.73,-79.26 491.77,-85.02"/>
</g>
</g>
</svg>
