<?xml version="1.0" encoding="UTF-8" standalone="no"?>
<!DOCTYPE svg PUBLIC "-//W3C//DTD SVG 1.1//EN"
 "http://www.w3.org/Graphics/SVG/1.1/DTD/svg11.dtd">
<!-- Generated by graphviz version 2.43.0 (0)
 -->
<!-- Title: Device/SYCL_Device_Inquiry.h Pages: 1 -->
<svg width="447pt" height="173pt"
 viewBox="0.00 0.00 446.50 173.00" xmlns="http://www.w3.org/2000/svg" xmlns:xlink="http://www.w3.org/1999/xlink">

<svg id="main" version="1.1" xmlns="http://www.w3.org/2000/svg" xmlns:xlink="http://www.w3.org/1999/xlink" xml:space="preserve" onload="init(evt)">
<style type="text/css"><![CDATA[
.node, .edge {opacity: 0.7;}
.node.selected, .edge.selected {opacity: 1;}
.edge:hover path { stroke: red; }
.edge:hover polygon { stroke: red; fill: red; }
]]></style>
<script type="application/ecmascript" xlink:href="svg.min.js" target="_top"/>
<svg id="graph" class="graph">
<g id="graph0" class="graph" transform="scale(1 1) rotate(0) translate(4 169)">
<title>Device/SYCL_Device_Inquiry.h</title>
<!-- Node1 -->
<g id="node1" class="node">
<title>Node1</title>
<g id="a_node1"><a xlink:title="Collecting SYCL device availability and information.">
<polygon fill="#bfbfbf" stroke="black" points="150,-134.5 150,-164.5 266,-164.5 266,-134.5 150,-134.5"/>
<text text-anchor="start" x="158" y="-152.5" font-family="Helvetica,sans-Serif" font-size="10.00">Device/SYCL_Device</text>
<text text-anchor="middle" x="208" y="-141.5" font-family="Helvetica,sans-Serif" font-size="10.00">_Inquiry.h</text>
</a>
</g>
</g>
<!-- Node2 -->
<g id="node2" class="node">
<title>Node2</title>
<g id="a_node2"><a xlink:href="_device___py_bind___module_8cpp.html" target="_top" xlink:title="Python module for device in PySYCL.">
<polygon fill="none" stroke="black" points="0,-67.5 0,-97.5 126,-97.5 126,-67.5 0,-67.5"/>
<text text-anchor="start" x="8" y="-85.5" font-family="Helvetica,sans-Serif" font-size="10.00">Device/Device_PyBind</text>
<text text-anchor="middle" x="63" y="-74.5" font-family="Helvetica,sans-Serif" font-size="10.00">_Module.cpp</text>
</a>
</g>
</g>
<!-- Node1&#45;&gt;Node2 -->
<g id="edge1" class="edge">
<title>Node1&#45;&gt;Node2</title>
<path fill="none" stroke="midnightblue" d="M167.33,-130.27C144.24,-119.92 115.76,-107.15 94.4,-97.58"/>
<polygon fill="midnightblue" stroke="midnightblue" points="165.98,-133.5 176.54,-134.4 168.84,-127.11 165.98,-133.5"/>
</g>
<!-- Node3 -->
<g id="node3" class="node">
<title>Node3</title>
<g id="a_node3"><a xlink:href="_vector___object_8h.html" target="_top" xlink:title="Vector Object in PySYCL.">
<polygon fill="none" stroke="black" points="144.5,-73 144.5,-92 271.5,-92 271.5,-73 144.5,-73"/>
<text text-anchor="middle" x="208" y="-80" font-family="Helvetica,sans-Serif" font-size="10.00">Vector/Vector_Object.h</text>
</a>
</g>
</g>
<!-- Node1&#45;&gt;Node3 -->
<g id="edge2" class="edge">
<title>Node1&#45;&gt;Node3</title>
<path fill="none" stroke="midnightblue" d="M208,-124.25C208,-113.02 208,-100.38 208,-92.19"/>
<polygon fill="midnightblue" stroke="midnightblue" points="204.5,-124.4 208,-134.4 211.5,-124.4 204.5,-124.4"/>
</g>
<!-- Node5 -->
<g id="node5" class="node">
<title>Node5</title>
<g id="a_node5"><a xlink:href="_vector___operations_8h.html" target="_top" xlink:title="Vector operations in PySYCL. These operations receive two individual vectors and return a single vect...">
<polygon fill="none" stroke="black" points="289.5,-73 289.5,-92 438.5,-92 438.5,-73 289.5,-73"/>
<text text-anchor="middle" x="364" y="-80" font-family="Helvetica,sans-Serif" font-size="10.00">Vector/Vector_Operations.h</text>
</a>
</g>
</g>
<!-- Node1&#45;&gt;Node5 -->
<g id="edge4" class="edge">
<title>Node1&#45;&gt;Node5</title>
<path fill="none" stroke="midnightblue" d="M251.3,-130.46C281.44,-117.9 320.26,-101.72 343.58,-92.01"/>
<polygon fill="midnightblue" stroke="midnightblue" points="249.73,-127.32 241.85,-134.4 252.43,-133.78 249.73,-127.32"/>
</g>
<!-- Node4 -->
<g id="node4" class="node">
<title>Node4</title>
<g id="a_node4"><a xlink:href="_vector___py_bind___module_8cpp.html" target="_top" xlink:title="Python module for vector in PySYCL.">
<polygon fill="none" stroke="black" points="226,-0.5 226,-30.5 346,-30.5 346,-0.5 226,-0.5"/>
<text text-anchor="start" x="234" y="-18.5" font-family="Helvetica,sans-Serif" font-size="10.00">Vector/Vector_PyBind</text>
<text text-anchor="middle" x="286" y="-7.5" font-family="Helvetica,sans-Serif" font-size="10.00">_Module.cpp</text>
</a>
</g>
</g>
<!-- Node3&#45;&gt;Node4 -->
<g id="edge3" class="edge">
<title>Node3&#45;&gt;Node4</title>
<path fill="none" stroke="midnightblue" d="M226.32,-66.24C239.26,-55.45 256.48,-41.1 269.09,-30.59"/>
<polygon fill="midnightblue" stroke="midnightblue" points="223.96,-63.64 218.52,-72.73 228.44,-69.02 223.96,-63.64"/>
</g>
<!-- Node5&#45;&gt;Node4 -->
<g id="edge5" class="edge">
<title>Node5&#45;&gt;Node4</title>
<path fill="none" stroke="midnightblue" d="M345.68,-66.24C332.74,-55.45 315.52,-41.1 302.91,-30.59"/>
<polygon fill="midnightblue" stroke="midnightblue" points="343.56,-69.02 353.48,-72.73 348.04,-63.64 343.56,-69.02"/>
</g>
</g>
</svg>
</svg>

<style type='text/css'>
<![CDATA[
[data-mouse-over-selected='false'] { opacity: 0.7; }
[data-mouse-over-selected='true']  { opacity: 1.0; }
]]>
</style>
<script type="application/ecmascript"><![CDATA[
document.addEventListener('DOMContentLoaded', (event) => {
  highlightEdges();
  highlightAdjacentNodes();
});
]]></script>
</svg>
</svg>
