<?xml version="1.0" encoding="UTF-8" standalone="no"?>
<!DOCTYPE svg PUBLIC "-//W3C//DTD SVG 1.1//EN"
 "http://www.w3.org/Graphics/SVG/1.1/DTD/svg11.dtd">
<!-- Generated by graphviz version 2.43.0 (0)
 -->
<!-- Title: Vector/Vector_Operations.h Pages: 1 -->
<svg width="344pt" height="151pt"
 viewBox="0.00 0.00 343.75 151.00" xmlns="http://www.w3.org/2000/svg" xmlns:xlink="http://www.w3.org/1999/xlink">
<g id="graph0" class="graph" transform="scale(1 1) rotate(0) translate(4 147)">
<title>Vector/Vector_Operations.h</title>
<!-- Node1 -->
<g id="node1" class="node">
<title>Node1</title>
<g id="a_node1"><a xlink:title="Vector operations in PySYCL. These operations receive two individual vectors and return a single vect...">
<polygon fill="#bfbfbf" stroke="black" points="47.75,-123.5 47.75,-142.5 196.75,-142.5 196.75,-123.5 47.75,-123.5"/>
<text text-anchor="middle" x="122.25" y="-130.5" font-family="Helvetica,sans-Serif" font-size="10.00">Vector/Vector_Operations.h</text>
</a>
</g>
</g>
<!-- Node2 -->
<g id="node2" class="node">
<title>Node2</title>
<g id="a_node2"><a xlink:title=" ">
<polygon fill="none" stroke="#bfbfbf" points="3.25,-0.5 3.25,-19.5 63.25,-19.5 63.25,-0.5 3.25,-0.5"/>
<text text-anchor="middle" x="33.25" y="-7.5" font-family="Helvetica,sans-Serif" font-size="10.00">iostream</text>
</a>
</g>
</g>
<!-- Node1&#45;&gt;Node2 -->
<g id="edge1" class="edge">
<title>Node1&#45;&gt;Node2</title>
<path fill="none" stroke="midnightblue" d="M62.57,-123.43C40.82,-117.1 18.37,-106.11 5.25,-87 -7.38,-68.61 6.39,-43.83 18.7,-27.64"/>
<polygon fill="midnightblue" stroke="midnightblue" points="21.62,-29.6 25.2,-19.63 16.18,-25.18 21.62,-29.6"/>
</g>
<!-- Node3 -->
<g id="node3" class="node">
<title>Node3</title>
<g id="a_node3"><a xlink:title=" ">
<polygon fill="none" stroke="#bfbfbf" points="84.25,-0.5 84.25,-19.5 156.25,-19.5 156.25,-0.5 84.25,-0.5"/>
<text text-anchor="middle" x="120.25" y="-7.5" font-family="Helvetica,sans-Serif" font-size="10.00">CL/sycl.hpp</text>
</a>
</g>
</g>
<!-- Node1&#45;&gt;Node3 -->
<g id="edge2" class="edge">
<title>Node1&#45;&gt;Node3</title>
<path fill="none" stroke="midnightblue" d="M129.14,-123.32C135.52,-114.68 144.56,-100.77 148.25,-87 151.82,-73.69 152.03,-69.25 148.25,-56 145.35,-45.84 139.42,-35.75 133.76,-27.7"/>
<polygon fill="midnightblue" stroke="midnightblue" points="136.47,-25.48 127.66,-19.59 130.87,-29.69 136.47,-25.48"/>
</g>
<!-- Node4 -->
<g id="node4" class="node">
<title>Node4</title>
<g id="a_node4"><a xlink:href="_s_y_c_l___device___inquiry_8h.html" target="_top" xlink:title="Collecting SYCL device availability and information.">
<polygon fill="none" stroke="black" points="14.75,-56.5 14.75,-86.5 139.75,-86.5 139.75,-56.5 14.75,-56.5"/>
<text text-anchor="start" x="22.75" y="-74.5" font-family="Helvetica,sans-Serif" font-size="10.00">../Device/SYCL_Device</text>
<text text-anchor="middle" x="77.25" y="-63.5" font-family="Helvetica,sans-Serif" font-size="10.00">_Inquiry.h</text>
</a>
</g>
</g>
<!-- Node1&#45;&gt;Node4 -->
<g id="edge3" class="edge">
<title>Node1&#45;&gt;Node4</title>
<path fill="none" stroke="midnightblue" d="M115.8,-123.48C110.11,-115.94 101.55,-104.63 93.94,-94.57"/>
<polygon fill="midnightblue" stroke="midnightblue" points="96.68,-92.39 87.85,-86.52 91.09,-96.61 96.68,-92.39"/>
</g>
<!-- Node5 -->
<g id="node5" class="node">
<title>Node5</title>
<g id="a_node5"><a xlink:href="_math___functions_8h.html" target="_top" xlink:title="Math functions returned in the form of lambda functions.">
<polygon fill="none" stroke="black" points="196.75,-62 196.75,-81 335.75,-81 335.75,-62 196.75,-62"/>
<text text-anchor="middle" x="266.25" y="-69" font-family="Helvetica,sans-Serif" font-size="10.00">../Math/Math_Functions.h</text>
</a>
</g>
</g>
<!-- Node1&#45;&gt;Node5 -->
<g id="edge6" class="edge">
<title>Node1&#45;&gt;Node5</title>
<path fill="none" stroke="midnightblue" d="M142.88,-123.48C167.37,-113.36 208.4,-96.4 236.36,-84.85"/>
<polygon fill="midnightblue" stroke="midnightblue" points="237.75,-88.06 245.66,-81.01 235.08,-81.59 237.75,-88.06"/>
</g>
<!-- Node4&#45;&gt;Node2 -->
<g id="edge4" class="edge">
<title>Node4&#45;&gt;Node2</title>
<path fill="none" stroke="midnightblue" d="M66.82,-56.4C60.49,-47.84 52.38,-36.87 45.71,-27.86"/>
<polygon fill="midnightblue" stroke="midnightblue" points="48.41,-25.62 39.65,-19.66 42.78,-29.78 48.41,-25.62"/>
</g>
<!-- Node4&#45;&gt;Node3 -->
<g id="edge5" class="edge">
<title>Node4&#45;&gt;Node3</title>
<path fill="none" stroke="midnightblue" d="M87.44,-56.4C93.62,-47.84 101.55,-36.87 108.07,-27.86"/>
<polygon fill="midnightblue" stroke="midnightblue" points="110.97,-29.81 113.99,-19.66 105.3,-25.71 110.97,-29.81"/>
</g>
</g>
</svg>
