<?xml version="1.0" encoding="UTF-8" standalone="no"?>
<!DOCTYPE svg PUBLIC "-//W3C//DTD SVG 1.1//EN"
 "http://www.w3.org/Graphics/SVG/1.1/DTD/svg11.dtd">
<!-- Generated by graphviz version 2.43.0 (0)
 -->
<!-- Title: Vector/Vector_Object.h Pages: 1 -->
<svg width="531pt" height="175pt"
 viewBox="0.00 0.00 530.50 175.00" xmlns="http://www.w3.org/2000/svg" xmlns:xlink="http://www.w3.org/1999/xlink">
<g id="graph0" class="graph" transform="scale(1 1) rotate(0) translate(4 171)">
<title>Vector/Vector_Object.h</title>
<!-- Node1 -->
<g id="node1" class="node">
<title>Node1</title>
<g id="a_node1"><a xlink:title="Vector Object in PySYCL.">
<polygon fill="#bfbfbf" stroke="black" points="43,-141.5 43,-166.5 231,-166.5 231,-141.5 43,-141.5"/>
<text text-anchor="middle" x="137" y="-150.5" font-family="Segoe UI" font-size="15.00">Vector/Vector_Object.h</text>
</a>
</g>
</g>
<!-- Node2 -->
<g id="node2" class="node">
<title>Node2</title>
<g id="a_node2"><a xlink:title=" ">
<polygon fill="none" stroke="#bfbfbf" points="0,-0.5 0,-25.5 104,-25.5 104,-0.5 0,-0.5"/>
<text text-anchor="middle" x="52" y="-9.5" font-family="Segoe UI" font-size="15.00">CL/sycl.hpp</text>
</a>
</g>
</g>
<!-- Node1&#45;&gt;Node2 -->
<g id="edge1" class="edge">
<title>Node1&#45;&gt;Node2</title>
<path fill="none" stroke="midnightblue" d="M78.17,-141.42C58.16,-134.37 37.88,-123.07 26,-105 11.67,-83.19 25.13,-53.41 37.42,-33.95"/>
<polygon fill="midnightblue" stroke="midnightblue" points="40.38,-35.8 43.05,-25.55 34.57,-31.91 40.38,-35.8"/>
</g>
<!-- Node3 -->
<g id="node3" class="node">
<title>Node3</title>
<g id="a_node3"><a xlink:title=" ">
<polygon fill="none" stroke="#bfbfbf" points="35,-71 35,-96 99,-96 99,-71 35,-71"/>
<text text-anchor="middle" x="67" y="-80" font-family="Segoe UI" font-size="15.00">vector</text>
</a>
</g>
</g>
<!-- Node1&#45;&gt;Node3 -->
<g id="edge2" class="edge">
<title>Node1&#45;&gt;Node3</title>
<path fill="none" stroke="midnightblue" d="M125.13,-141.38C114.53,-131.01 98.82,-115.64 86.4,-103.48"/>
<polygon fill="midnightblue" stroke="midnightblue" points="88.76,-100.9 79.17,-96.41 83.87,-105.9 88.76,-100.9"/>
</g>
<!-- Node4 -->
<g id="node4" class="node">
<title>Node4</title>
<g id="a_node4"><a xlink:href="_s_y_c_l___device___inquiry_8h.html" target="_top" xlink:title="Collecting SYCL device availability and information.">
<polygon fill="none" stroke="black" points="117,-62.5 117,-104.5 299,-104.5 299,-62.5 117,-62.5"/>
<text text-anchor="start" x="125" y="-88.5" font-family="Segoe UI" font-size="15.00">../Device/SYCL_Device</text>
<text text-anchor="middle" x="208" y="-71.5" font-family="Segoe UI" font-size="15.00">_Inquiry.h</text>
</a>
</g>
</g>
<!-- Node1&#45;&gt;Node4 -->
<g id="edge3" class="edge">
<title>Node1&#45;&gt;Node4</title>
<path fill="none" stroke="midnightblue" d="M149.04,-141.38C157.53,-133.19 169.25,-121.88 180.01,-111.5"/>
<polygon fill="midnightblue" stroke="midnightblue" points="182.49,-113.98 187.26,-104.51 177.63,-108.94 182.49,-113.98"/>
</g>
<!-- Node6 -->
<g id="node6" class="node">
<title>Node6</title>
<g id="a_node6"><a xlink:href="_math___functions_8h.html" target="_top" xlink:title="Math functions returned in the form of lambda functions.">
<polygon fill="none" stroke="black" points="317.5,-71 317.5,-96 522.5,-96 522.5,-71 317.5,-71"/>
<text text-anchor="middle" x="420" y="-80" font-family="Segoe UI" font-size="15.00">../Math/Math_Functions.h</text>
</a>
</g>
</g>
<!-- Node1&#45;&gt;Node6 -->
<g id="edge6" class="edge">
<title>Node1&#45;&gt;Node6</title>
<path fill="none" stroke="midnightblue" d="M184.69,-141.46C233.67,-129.6 309.95,-111.14 362.31,-98.46"/>
<polygon fill="midnightblue" stroke="midnightblue" points="363.22,-101.84 372.12,-96.09 361.57,-95.04 363.22,-101.84"/>
</g>
<!-- Node4&#45;&gt;Node2 -->
<g id="edge5" class="edge">
<title>Node4&#45;&gt;Node2</title>
<path fill="none" stroke="midnightblue" d="M162.04,-62.32C138.24,-51.87 109.62,-39.3 87.54,-29.6"/>
<polygon fill="midnightblue" stroke="midnightblue" points="88.76,-26.32 78.2,-25.5 85.95,-32.73 88.76,-26.32"/>
</g>
<!-- Node5 -->
<g id="node5" class="node">
<title>Node5</title>
<g id="a_node5"><a xlink:title=" ">
<polygon fill="none" stroke="#bfbfbf" points="167,-0.5 167,-25.5 249,-25.5 249,-0.5 167,-0.5"/>
<text text-anchor="middle" x="208" y="-9.5" font-family="Segoe UI" font-size="15.00">iostream</text>
</a>
</g>
</g>
<!-- Node4&#45;&gt;Node5 -->
<g id="edge4" class="edge">
<title>Node4&#45;&gt;Node5</title>
<path fill="none" stroke="midnightblue" d="M208,-62.32C208,-53.98 208,-44.29 208,-35.78"/>
<polygon fill="midnightblue" stroke="midnightblue" points="211.5,-35.5 208,-25.5 204.5,-35.5 211.5,-35.5"/>
</g>
</g>
</svg>
