<?xml version="1.0" encoding="UTF-8" standalone="no"?>
<!DOCTYPE svg PUBLIC "-//W3C//DTD SVG 1.1//EN"
 "http://www.w3.org/Graphics/SVG/1.1/DTD/svg11.dtd">
<!-- Generated by graphviz version 2.43.0 (0)
 -->
<!-- Title: Vector Pages: 1 -->
<svg width="134pt" height="116pt"
 viewBox="0.00 0.00 134.00 116.00" xmlns="http://www.w3.org/2000/svg" xmlns:xlink="http://www.w3.org/1999/xlink">
<g id="graph0" class="graph" transform="scale(1 1) rotate(0) translate(4 112)">
<title>Vector</title>
<!-- dir_6f539ff7f1e57d810587ac57a02ef21e -->
<g id="node1" class="node">
<title>dir_6f539ff7f1e57d810587ac57a02ef21e</title>
<g id="a_node1"><a xlink:href="dir_6f539ff7f1e57d810587ac57a02ef21e.html" target="_top" xlink:title="Vector">
<polygon fill="#eeeeff" stroke="black" points="90,-108 36,-108 36,-72 90,-72 90,-108"/>
<text text-anchor="middle" x="63" y="-87.5" font-family="Helvetica,sans-Serif" font-size="10.00">Vector</text>
</a>
</g>
</g>
<!-- dir_4c76ddfc10a27668d6c42d3412320ee0 -->
<g id="node2" class="node">
<title>dir_4c76ddfc10a27668d6c42d3412320ee0</title>
<g id="a_node2"><a xlink:href="dir_4c76ddfc10a27668d6c42d3412320ee0.html" target="_top" xlink:title="Device">
<polygon fill="none" stroke="black" points="54,-36 0,-36 0,0 54,0 54,-36"/>
<text text-anchor="middle" x="27" y="-15.5" font-family="Helvetica,sans-Serif" font-size="10.00">Device</text>
</a>
</g>
</g>
<!-- dir_6f539ff7f1e57d810587ac57a02ef21e&#45;&gt;dir_4c76ddfc10a27668d6c42d3412320ee0 -->
<g id="edge1" class="edge">
<title>dir_6f539ff7f1e57d810587ac57a02ef21e&#45;&gt;dir_4c76ddfc10a27668d6c42d3412320ee0</title>
<path fill="none" stroke="black" d="M54.1,-71.7C50,-63.73 45.05,-54.1 40.51,-45.26"/>
<polygon fill="black" stroke="black" points="43.48,-43.4 35.8,-36.1 37.26,-46.6 43.48,-43.4"/>
<g id="a_edge1&#45;headlabel"><a xlink:href="dir_000002_000000.html" target="_top" xlink:title="2">
<text text-anchor="middle" x="47.65" y="-42.79" font-family="Helvetica,sans-Serif" font-size="10.00">2</text>
</a>
</g>
</g>
<!-- dir_5bce4665f02041fc00c7e7e07b63c945 -->
<g id="node3" class="node">
<title>dir_5bce4665f02041fc00c7e7e07b63c945</title>
<g id="a_node3"><a xlink:href="dir_5bce4665f02041fc00c7e7e07b63c945.html" target="_top" xlink:title="Math">
<polygon fill="none" stroke="black" points="126,-36 72,-36 72,0 126,0 126,-36"/>
<text text-anchor="middle" x="99" y="-15.5" font-family="Helvetica,sans-Serif" font-size="10.00">Math</text>
</a>
</g>
</g>
<!-- dir_6f539ff7f1e57d810587ac57a02ef21e&#45;&gt;dir_5bce4665f02041fc00c7e7e07b63c945 -->
<g id="edge2" class="edge">
<title>dir_6f539ff7f1e57d810587ac57a02ef21e&#45;&gt;dir_5bce4665f02041fc00c7e7e07b63c945</title>
<path fill="none" stroke="black" d="M71.9,-71.7C76,-63.73 80.95,-54.1 85.49,-45.26"/>
<polygon fill="black" stroke="black" points="88.74,-46.6 90.2,-36.1 82.52,-43.4 88.74,-46.6"/>
<g id="a_edge2&#45;headlabel"><a xlink:href="dir_000002_000001.html" target="_top" xlink:title="2">
<text text-anchor="middle" x="89.62" y="-48.59" font-family="Helvetica,sans-Serif" font-size="10.00">2</text>
</a>
</g>
</g>
</g>
</svg>
