<?xml version="1.0" encoding="UTF-8" standalone="no"?>
<!DOCTYPE svg PUBLIC "-//W3C//DTD SVG 1.1//EN"
 "http://www.w3.org/Graphics/SVG/1.1/DTD/svg11.dtd">
<!-- Generated by graphviz version 2.43.0 (0)
 -->
<!-- Title: Math/Math_Functions.h Pages: 1 -->
<svg width="302pt" height="151pt"
 viewBox="0.00 0.00 302.00 151.00" xmlns="http://www.w3.org/2000/svg" xmlns:xlink="http://www.w3.org/1999/xlink">
<g id="graph0" class="graph" transform="scale(1 1) rotate(0) translate(4 147)">
<title>Math/Math_Functions.h</title>
<!-- Node1 -->
<g id="node1" class="node">
<title>Node1</title>
<g id="a_node1"><a xlink:title="Math functions returned in the form of lambda functions.">
<polygon fill="#bfbfbf" stroke="black" points="76.5,-123.5 76.5,-142.5 206.5,-142.5 206.5,-123.5 76.5,-123.5"/>
<text text-anchor="middle" x="141.5" y="-130.5" font-family="Helvetica,sans-Serif" font-size="10.00">Math/Math_Functions.h</text>
</a>
</g>
</g>
<!-- Node2 -->
<g id="node2" class="node">
<title>Node2</title>
<g id="a_node2"><a xlink:href="_vector___object_8h.html" target="_top" xlink:title="Vector Object in PySYCL.">
<polygon fill="none" stroke="black" points="0,-67.5 0,-86.5 127,-86.5 127,-67.5 0,-67.5"/>
<text text-anchor="middle" x="63.5" y="-74.5" font-family="Helvetica,sans-Serif" font-size="10.00">Vector/Vector_Object.h</text>
</a>
</g>
</g>
<!-- Node1&#45;&gt;Node2 -->
<g id="edge1" class="edge">
<title>Node1&#45;&gt;Node2</title>
<path fill="none" stroke="midnightblue" d="M120.73,-117.62C106.48,-107.76 88.04,-94.99 76,-86.65"/>
<polygon fill="midnightblue" stroke="midnightblue" points="118.75,-120.51 128.97,-123.32 122.74,-114.75 118.75,-120.51"/>
</g>
<!-- Node4 -->
<g id="node4" class="node">
<title>Node4</title>
<g id="a_node4"><a xlink:href="_vector___operations_8h.html" target="_top" xlink:title="Vector operations in PySYCL. These operations receive two individual vectors and return a single vect...">
<polygon fill="none" stroke="black" points="145,-67.5 145,-86.5 294,-86.5 294,-67.5 145,-67.5"/>
<text text-anchor="middle" x="219.5" y="-74.5" font-family="Helvetica,sans-Serif" font-size="10.00">Vector/Vector_Operations.h</text>
</a>
</g>
</g>
<!-- Node1&#45;&gt;Node4 -->
<g id="edge3" class="edge">
<title>Node1&#45;&gt;Node4</title>
<path fill="none" stroke="midnightblue" d="M162.27,-117.62C176.52,-107.76 194.96,-94.99 207,-86.65"/>
<polygon fill="midnightblue" stroke="midnightblue" points="160.26,-114.75 154.03,-123.32 164.25,-120.51 160.26,-114.75"/>
</g>
<!-- Node3 -->
<g id="node3" class="node">
<title>Node3</title>
<g id="a_node3"><a xlink:href="_vector___py_bind___module_8cpp.html" target="_top" xlink:title="Python module for vector in PySYCL.">
<polygon fill="none" stroke="black" points="81.5,-0.5 81.5,-30.5 201.5,-30.5 201.5,-0.5 81.5,-0.5"/>
<text text-anchor="start" x="89.5" y="-18.5" font-family="Helvetica,sans-Serif" font-size="10.00">Vector/Vector_PyBind</text>
<text text-anchor="middle" x="141.5" y="-7.5" font-family="Helvetica,sans-Serif" font-size="10.00">_Module.cpp</text>
</a>
</g>
</g>
<!-- Node2&#45;&gt;Node3 -->
<g id="edge2" class="edge">
<title>Node2&#45;&gt;Node3</title>
<path fill="none" stroke="midnightblue" d="M82.91,-61.2C95.21,-51.81 111.02,-39.75 123.12,-30.52"/>
<polygon fill="midnightblue" stroke="midnightblue" points="80.5,-58.63 74.68,-67.48 84.75,-64.19 80.5,-58.63"/>
</g>
<!-- Node4&#45;&gt;Node3 -->
<g id="edge4" class="edge">
<title>Node4&#45;&gt;Node3</title>
<path fill="none" stroke="midnightblue" d="M200.09,-61.2C187.79,-51.81 171.98,-39.75 159.88,-30.52"/>
<polygon fill="midnightblue" stroke="midnightblue" points="198.25,-64.19 208.32,-67.48 202.5,-58.63 198.25,-64.19"/>
</g>
</g>
</svg>
