<?xml version="1.0" encoding="UTF-8" standalone="no"?>
<!DOCTYPE svg PUBLIC "-//W3C//DTD SVG 1.1//EN"
 "http://www.w3.org/Graphics/SVG/1.1/DTD/svg11.dtd">
<!-- Generated by graphviz version 2.43.0 (0)
 -->
<!-- Title: Vector/Vector_Object.h Pages: 1 -->
<svg width="384pt" height="151pt"
 viewBox="0.00 0.00 383.50 151.00" xmlns="http://www.w3.org/2000/svg" xmlns:xlink="http://www.w3.org/1999/xlink">
<g id="graph0" class="graph" transform="scale(1 1) rotate(0) translate(4 147)">
<title>Vector/Vector_Object.h</title>
<!-- Node1 -->
<g id="node1" class="node">
<title>Node1</title>
<g id="a_node1"><a xlink:title="Vector Object in PySYCL.">
<polygon fill="#bfbfbf" stroke="black" points="40.5,-123.5 40.5,-142.5 167.5,-142.5 167.5,-123.5 40.5,-123.5"/>
<text text-anchor="middle" x="104" y="-130.5" font-family="Helvetica,sans-Serif" font-size="10.00">Vector/Vector_Object.h</text>
</a>
</g>
</g>
<!-- Node2 -->
<g id="node2" class="node">
<title>Node2</title>
<g id="a_node2"><a xlink:title=" ">
<polygon fill="none" stroke="#bfbfbf" points="0,-0.5 0,-19.5 72,-19.5 72,-0.5 0,-0.5"/>
<text text-anchor="middle" x="36" y="-7.5" font-family="Helvetica,sans-Serif" font-size="10.00">CL/sycl.hpp</text>
</a>
</g>
</g>
<!-- Node1&#45;&gt;Node2 -->
<g id="edge1" class="edge">
<title>Node1&#45;&gt;Node2</title>
<path fill="none" stroke="midnightblue" d="M70.2,-123.39C51.61,-116.74 30.11,-105.45 19,-87 8.14,-68.97 16.78,-44.76 25.21,-28.56"/>
<polygon fill="midnightblue" stroke="midnightblue" points="28.39,-30.06 30.26,-19.63 22.29,-26.61 28.39,-30.06"/>
</g>
<!-- Node3 -->
<g id="node3" class="node">
<title>Node3</title>
<g id="a_node3"><a xlink:title=" ">
<polygon fill="none" stroke="#bfbfbf" points="28.5,-62 28.5,-81 75.5,-81 75.5,-62 28.5,-62"/>
<text text-anchor="middle" x="52" y="-69" font-family="Helvetica,sans-Serif" font-size="10.00">vector</text>
</a>
</g>
</g>
<!-- Node1&#45;&gt;Node3 -->
<g id="edge2" class="edge">
<title>Node1&#45;&gt;Node3</title>
<path fill="none" stroke="midnightblue" d="M96.55,-123.48C88.67,-114.46 76.06,-100.02 66.26,-88.81"/>
<polygon fill="midnightblue" stroke="midnightblue" points="68.65,-86.24 59.44,-81.01 63.38,-90.84 68.65,-86.24"/>
</g>
<!-- Node4 -->
<g id="node4" class="node">
<title>Node4</title>
<g id="a_node4"><a xlink:href="_s_y_c_l___device___inquiry_8h.html" target="_top" xlink:title="Collecting SYCL device availability and information.">
<polygon fill="none" stroke="black" points="93.5,-56.5 93.5,-86.5 218.5,-86.5 218.5,-56.5 93.5,-56.5"/>
<text text-anchor="start" x="101.5" y="-74.5" font-family="Helvetica,sans-Serif" font-size="10.00">../Device/SYCL_Device</text>
<text text-anchor="middle" x="156" y="-63.5" font-family="Helvetica,sans-Serif" font-size="10.00">_Inquiry.h</text>
</a>
</g>
</g>
<!-- Node1&#45;&gt;Node4 -->
<g id="edge3" class="edge">
<title>Node1&#45;&gt;Node4</title>
<path fill="none" stroke="midnightblue" d="M111.45,-123.48C118.1,-115.87 128.12,-104.4 136.98,-94.26"/>
<polygon fill="midnightblue" stroke="midnightblue" points="139.8,-96.36 143.74,-86.52 134.53,-91.75 139.8,-96.36"/>
</g>
<!-- Node6 -->
<g id="node6" class="node">
<title>Node6</title>
<g id="a_node6"><a xlink:href="_math___functions_8h.html" target="_top" xlink:title="Math functions returned in the form of lambda functions.">
<polygon fill="none" stroke="black" points="236.5,-62 236.5,-81 375.5,-81 375.5,-62 236.5,-62"/>
<text text-anchor="middle" x="306" y="-69" font-family="Helvetica,sans-Serif" font-size="10.00">../Math/Math_Functions.h</text>
</a>
</g>
</g>
<!-- Node1&#45;&gt;Node6 -->
<g id="edge6" class="edge">
<title>Node1&#45;&gt;Node6</title>
<path fill="none" stroke="midnightblue" d="M132.94,-123.48C168.27,-113.07 228.13,-95.44 267.36,-83.88"/>
<polygon fill="midnightblue" stroke="midnightblue" points="268.51,-87.19 277.11,-81.01 266.53,-80.48 268.51,-87.19"/>
</g>
<!-- Node4&#45;&gt;Node2 -->
<g id="edge5" class="edge">
<title>Node4&#45;&gt;Node2</title>
<path fill="none" stroke="midnightblue" d="M127.56,-56.4C107.88,-46.64 81.86,-33.74 62.59,-24.18"/>
<polygon fill="midnightblue" stroke="midnightblue" points="63.98,-20.96 53.46,-19.66 60.87,-27.24 63.98,-20.96"/>
</g>
<!-- Node5 -->
<g id="node5" class="node">
<title>Node5</title>
<g id="a_node5"><a xlink:title=" ">
<polygon fill="none" stroke="#bfbfbf" points="126,-0.5 126,-19.5 186,-19.5 186,-0.5 126,-0.5"/>
<text text-anchor="middle" x="156" y="-7.5" font-family="Helvetica,sans-Serif" font-size="10.00">iostream</text>
</a>
</g>
</g>
<!-- Node4&#45;&gt;Node5 -->
<g id="edge4" class="edge">
<title>Node4&#45;&gt;Node5</title>
<path fill="none" stroke="midnightblue" d="M156,-56.4C156,-48.47 156,-38.46 156,-29.86"/>
<polygon fill="midnightblue" stroke="midnightblue" points="159.5,-29.66 156,-19.66 152.5,-29.66 159.5,-29.66"/>
</g>
</g>
</svg>
