<?xml version="1.0" encoding="UTF-8" standalone="no"?>
<!DOCTYPE svg PUBLIC "-//W3C//DTD SVG 1.1//EN"
 "http://www.w3.org/Graphics/SVG/1.1/DTD/svg11.dtd">
<!-- Generated by graphviz version 2.43.0 (0)
 -->
<!-- Title: Vector/Vector_PyBind_Module.cpp Pages: 1 -->
<!--zoomable 218 -->
<svg id="main" version="1.1" xmlns="http://www.w3.org/2000/svg" xmlns:xlink="http://www.w3.org/1999/xlink" xml:space="preserve" onload="init(evt)">
<style type="text/css"><![CDATA[
.edge:hover path { stroke: red; }
.edge:hover polygon { stroke: red; fill: red; }
]]></style>
<script type="text/javascript"><![CDATA[
var edges = document.getElementsByTagName('g');
if (edges && edges.length) {
  for (var i=0;i<edges.length;i++) {
    if (edges[i].id.substr(0,4)=='edge') {
      edges[i].setAttribute('class','edge');
    }
  }
}
]]></script>
        <defs>
                <circle id="rim" cx="0" cy="0" r="7"/>
                <circle id="rim2" cx="0" cy="0" r="3.5"/>
                <g id="zoomPlus">
                        <use xlink:href="#rim" fill="#404040">
                                <set attributeName="fill" to="#808080" begin="zoomplus.mouseover" end="zoomplus.mouseout"/>
                        </use>
                        <path d="M-4,0h8M0,-4v8" fill="none" stroke="white" stroke-width="1.5" pointer-events="none"/>
                </g>
                <g id="zoomMin">
                        <use xlink:href="#rim" fill="#404040">
                                <set attributeName="fill" to="#808080" begin="zoomminus.mouseover" end="zoomminus.mouseout"/>
                        </use>
                        <path d="M-4,0h8" fill="none" stroke="white" stroke-width="1.5" pointer-events="none"/>
                </g>
                <g id="dirArrow">
                        <path fill="none" stroke="white" stroke-width="1.5" d="M0,-3.0v7 M-2.5,-0.5L0,-3.0L2.5,-0.5"/>
                </g>
               <g id="resetDef">
                       <use xlink:href="#rim2" fill="#404040">
                               <set attributeName="fill" to="#808080" begin="reset.mouseover" end="reset.mouseout"/>
                       </use>
               </g>
        </defs>

<script type="text/javascript">
var viewWidth = 624;
var viewHeight = 218;
var sectionId = 'dynsection-0';
</script>
<script xlink:href="svgpan.js"/>
<svg id="graph" class="graph">
<g id="viewport">
<title>Vector/Vector_PyBind_Module.cpp</title>
<!-- Node1 -->
<g id="node1" class="node">
<title>Node1</title>
<g id="a_node1"><a xlink:title="Python module for vector in PySYCL.">
<polygon fill="#bfbfbf" stroke="black" points="179.5,-179.5 179.5,-209.5 299.5,-209.5 299.5,-179.5 179.5,-179.5"/>
<text text-anchor="start" x="187.5" y="-197.5" font-family="Helvetica,sans-Serif" font-size="10.00">Vector/Vector_PyBind</text>
<text text-anchor="middle" x="239.5" y="-186.5" font-family="Helvetica,sans-Serif" font-size="10.00">_Module.cpp</text>
</a>
</g>
</g>
<!-- Node2 -->
<g id="node2" class="node">
<title>Node2</title>
<g id="a_node2"><a xlink:title=" ">
<polygon fill="none" stroke="#bfbfbf" points="0,-123.5 0,-142.5 119,-142.5 119,-123.5 0,-123.5"/>
<text text-anchor="middle" x="59.5" y="-130.5" font-family="Helvetica,sans-Serif" font-size="10.00">pybind11/pybind11.h</text>
</a>
</g>
</g>
<!-- Node1&#45;&gt;Node2 -->
<g id="edge1" class="edge">
<title>Node1&#45;&gt;Node2</title>
<path fill="none" stroke="midnightblue" d="M196.84,-179.4C165.87,-169.16 124.45,-155.47 95.22,-145.81"/>
<polygon fill="midnightblue" stroke="midnightblue" points="96.02,-142.39 85.43,-142.57 93.83,-149.03 96.02,-142.39"/>
</g>
<!-- Node3 -->
<g id="node3" class="node">
<title>Node3</title>
<g id="a_node3"><a xlink:title=" ">
<polygon fill="none" stroke="#bfbfbf" points="137.5,-123.5 137.5,-142.5 223.5,-142.5 223.5,-123.5 137.5,-123.5"/>
<text text-anchor="middle" x="180.5" y="-130.5" font-family="Helvetica,sans-Serif" font-size="10.00">pybind11/stl.h</text>
</a>
</g>
</g>
<!-- Node1&#45;&gt;Node3 -->
<g id="edge2" class="edge">
<title>Node1&#45;&gt;Node3</title>
<path fill="none" stroke="midnightblue" d="M225.52,-179.4C216.77,-170.58 205.47,-159.18 196.38,-150.02"/>
<polygon fill="midnightblue" stroke="midnightblue" points="198.61,-147.29 189.09,-142.66 193.64,-152.22 198.61,-147.29"/>
</g>
<!-- Node4 -->
<g id="node4" class="node">
<title>Node4</title>
<g id="a_node4"><a xlink:href="_vector___operations_8h.html" target="_top" xlink:title="Vector operations in PySYCL. These operations receive two individual vectors and return a single vect...">
<polygon fill="none" stroke="black" points="242,-123.5 242,-142.5 357,-142.5 357,-123.5 242,-123.5"/>
<text text-anchor="middle" x="299.5" y="-130.5" font-family="Helvetica,sans-Serif" font-size="10.00">Vector_Operations.h</text>
</a>
</g>
</g>
<!-- Node1&#45;&gt;Node4 -->
<g id="edge3" class="edge">
<title>Node1&#45;&gt;Node4</title>
<path fill="none" stroke="midnightblue" d="M253.72,-179.4C262.71,-170.49 274.34,-158.95 283.63,-149.74"/>
<polygon fill="midnightblue" stroke="midnightblue" points="286.13,-152.18 290.77,-142.66 281.2,-147.21 286.13,-152.18"/>
</g>
<!-- Node9 -->
<g id="node9" class="node">
<title>Node9</title>
<g id="a_node9"><a xlink:href="_vector___object_8h.html" target="_top" xlink:title="Vector Object in PySYCL.">
<polygon fill="none" stroke="black" points="403,-123.5 403,-142.5 496,-142.5 496,-123.5 403,-123.5"/>
<text text-anchor="middle" x="449.5" y="-130.5" font-family="Helvetica,sans-Serif" font-size="10.00">Vector_Object.h</text>
</a>
</g>
</g>
<!-- Node1&#45;&gt;Node9 -->
<g id="edge10" class="edge">
<title>Node1&#45;&gt;Node9</title>
<path fill="none" stroke="midnightblue" d="M289,-179.47C325.86,-169.03 375.53,-154.96 409.81,-145.25"/>
<polygon fill="midnightblue" stroke="midnightblue" points="410.81,-148.6 419.48,-142.51 408.9,-141.87 410.81,-148.6"/>
</g>
<!-- Node5 -->
<g id="node5" class="node">
<title>Node5</title>
<g id="a_node5"><a xlink:title=" ">
<polygon fill="none" stroke="#bfbfbf" points="234.5,-0.5 234.5,-19.5 294.5,-19.5 294.5,-0.5 234.5,-0.5"/>
<text text-anchor="middle" x="264.5" y="-7.5" font-family="Helvetica,sans-Serif" font-size="10.00">iostream</text>
</a>
</g>
</g>
<!-- Node4&#45;&gt;Node5 -->
<g id="edge4" class="edge">
<title>Node4&#45;&gt;Node5</title>
<path fill="none" stroke="midnightblue" d="M244.36,-123.42C222.9,-117.09 200.41,-106.1 187.5,-87 179.78,-75.59 180.64,-67.95 187.5,-56 196.12,-40.99 211.89,-30.5 226.93,-23.46"/>
<polygon fill="midnightblue" stroke="midnightblue" points="228.32,-26.67 236.13,-19.51 225.56,-20.24 228.32,-26.67"/>
</g>
<!-- Node6 -->
<g id="node6" class="node">
<title>Node6</title>
<g id="a_node6"><a xlink:title=" ">
<polygon fill="none" stroke="#bfbfbf" points="413.5,-0.5 413.5,-19.5 485.5,-19.5 485.5,-0.5 413.5,-0.5"/>
<text text-anchor="middle" x="449.5" y="-7.5" font-family="Helvetica,sans-Serif" font-size="10.00">CL/sycl.hpp</text>
</a>
</g>
</g>
<!-- Node4&#45;&gt;Node6 -->
<g id="edge5" class="edge">
<title>Node4&#45;&gt;Node6</title>
<path fill="none" stroke="midnightblue" d="M270.38,-123.44C252.86,-116.62 231.98,-105.14 221.5,-87 214.61,-75.07 212.75,-66.64 221.5,-56 244.04,-28.58 343.28,-17.6 403.16,-13.41"/>
<polygon fill="midnightblue" stroke="midnightblue" points="403.75,-16.87 413.49,-12.72 403.28,-9.89 403.75,-16.87"/>
</g>
<!-- Node7 -->
<g id="node7" class="node">
<title>Node7</title>
<g id="a_node7"><a xlink:href="_s_y_c_l___device___inquiry_8h.html" target="_top" xlink:title="Collecting SYCL device availability and information.">
<polygon fill="none" stroke="black" points="387,-56.5 387,-86.5 512,-86.5 512,-56.5 387,-56.5"/>
<text text-anchor="start" x="395" y="-74.5" font-family="Helvetica,sans-Serif" font-size="10.00">../Device/SYCL_Device</text>
<text text-anchor="middle" x="449.5" y="-63.5" font-family="Helvetica,sans-Serif" font-size="10.00">_Inquiry.h</text>
</a>
</g>
</g>
<!-- Node4&#45;&gt;Node7 -->
<g id="edge6" class="edge">
<title>Node4&#45;&gt;Node7</title>
<path fill="none" stroke="midnightblue" d="M320.99,-123.48C342.73,-114.85 376.99,-101.26 404.66,-90.29"/>
<polygon fill="midnightblue" stroke="midnightblue" points="406.14,-93.46 414.15,-86.52 403.56,-86.96 406.14,-93.46"/>
</g>
<!-- Node8 -->
<g id="node8" class="node">
<title>Node8</title>
<g id="a_node8"><a xlink:href="_math___functions_8h.html" target="_top" xlink:title="Math functions returned in the form of lambda functions.">
<polygon fill="none" stroke="black" points="230,-62 230,-81 369,-81 369,-62 230,-62"/>
<text text-anchor="middle" x="299.5" y="-69" font-family="Helvetica,sans-Serif" font-size="10.00">../Math/Math_Functions.h</text>
</a>
</g>
</g>
<!-- Node4&#45;&gt;Node8 -->
<g id="edge9" class="edge">
<title>Node4&#45;&gt;Node8</title>
<path fill="none" stroke="midnightblue" d="M299.5,-123.48C299.5,-115.08 299.5,-101.98 299.5,-91.16"/>
<polygon fill="midnightblue" stroke="midnightblue" points="303,-91.01 299.5,-81.01 296,-91.01 303,-91.01"/>
</g>
<!-- Node7&#45;&gt;Node5 -->
<g id="edge7" class="edge">
<title>Node7&#45;&gt;Node5</title>
<path fill="none" stroke="midnightblue" d="M405.66,-56.4C373.69,-46.12 330.88,-32.35 300.82,-22.68"/>
<polygon fill="midnightblue" stroke="midnightblue" points="301.74,-19.3 291.15,-19.57 299.6,-25.96 301.74,-19.3"/>
</g>
<!-- Node7&#45;&gt;Node6 -->
<g id="edge8" class="edge">
<title>Node7&#45;&gt;Node6</title>
<path fill="none" stroke="midnightblue" d="M449.5,-56.4C449.5,-48.47 449.5,-38.46 449.5,-29.86"/>
<polygon fill="midnightblue" stroke="midnightblue" points="453,-29.66 449.5,-19.66 446,-29.66 453,-29.66"/>
</g>
<!-- Node9&#45;&gt;Node6 -->
<g id="edge11" class="edge">
<title>Node9&#45;&gt;Node6</title>
<path fill="none" stroke="midnightblue" d="M475,-123.47C491.49,-116.48 511.64,-104.79 521.5,-87 528.18,-74.95 528.18,-68.05 521.5,-56 513.41,-41.41 498.4,-30.92 484.16,-23.76"/>
<polygon fill="midnightblue" stroke="midnightblue" points="485.55,-20.55 475,-19.53 482.61,-26.9 485.55,-20.55"/>
</g>
<!-- Node9&#45;&gt;Node7 -->
<g id="edge13" class="edge">
<title>Node9&#45;&gt;Node7</title>
<path fill="none" stroke="midnightblue" d="M449.5,-123.48C449.5,-116.47 449.5,-106.19 449.5,-96.7"/>
<polygon fill="midnightblue" stroke="midnightblue" points="453,-96.52 449.5,-86.52 446,-96.52 453,-96.52"/>
</g>
<!-- Node9&#45;&gt;Node8 -->
<g id="edge14" class="edge">
<title>Node9&#45;&gt;Node8</title>
<path fill="none" stroke="midnightblue" d="M428.01,-123.48C402.39,-113.31 359.39,-96.26 330.26,-84.7"/>
<polygon fill="midnightblue" stroke="midnightblue" points="331.54,-81.44 320.95,-81.01 328.96,-87.95 331.54,-81.44"/>
</g>
<!-- Node10 -->
<g id="node10" class="node">
<title>Node10</title>
<g id="a_node10"><a xlink:title=" ">
<polygon fill="none" stroke="#bfbfbf" points="569,-62 569,-81 616,-81 616,-62 569,-62"/>
<text text-anchor="middle" x="592.5" y="-69" font-family="Helvetica,sans-Serif" font-size="10.00">vector</text>
</a>
</g>
</g>
<!-- Node9&#45;&gt;Node10 -->
<g id="edge12" class="edge">
<title>Node9&#45;&gt;Node10</title>
<path fill="none" stroke="midnightblue" d="M469.99,-123.48C494.31,-113.36 535.05,-96.4 562.82,-84.85"/>
<polygon fill="midnightblue" stroke="midnightblue" points="564.16,-88.08 572.05,-81.01 561.47,-81.62 564.16,-88.08"/>
</g>
</g>
</svg>
        <g id="navigator" transform="translate(0 0)" fill="#404254">
                <rect fill="#f2f5e9" fill-opacity="0.5" stroke="#606060" stroke-width=".5" x="0" y="0" width="60" height="60"/>
                <use id="zoomplus" xlink:href="#zoomPlus" x="17" y="9" onmousedown="handleZoom(evt,'in')"/>
                <use id="zoomminus" xlink:href="#zoomMin" x="42" y="9" onmousedown="handleZoom(evt,'out')"/>
                <use id="reset" xlink:href="#resetDef" x="30" y="36" onmousedown="handleReset()"/>
                <g id="arrowUp" xlink:href="#dirArrow" transform="translate(30 24)" onmousedown="handlePan(0,-1)">
                  <use xlink:href="#rim" fill="#404040">
                        <set attributeName="fill" to="#808080" begin="arrowUp.mouseover" end="arrowUp.mouseout"/>
                  </use>
                  <path fill="none" stroke="white" stroke-width="1.5" d="M0,-3.0v7 M-2.5,-0.5L0,-3.0L2.5,-0.5"/>
                </g>
                <g id="arrowRight" xlink:href="#dirArrow" transform="rotate(90) translate(36 -43)" onmousedown="handlePan(1,0)">
                  <use xlink:href="#rim" fill="#404040">
                        <set attributeName="fill" to="#808080" begin="arrowRight.mouseover" end="arrowRight.mouseout"/>
                  </use>
                  <path fill="none" stroke="white" stroke-width="1.5" d="M0,-3.0v7 M-2.5,-0.5L0,-3.0L2.5,-0.5"/>
                </g>
                <g id="arrowDown" xlink:href="#dirArrow" transform="rotate(180) translate(-30 -48)" onmousedown="handlePan(0,1)">
                  <use xlink:href="#rim" fill="#404040">
                        <set attributeName="fill" to="#808080" begin="arrowDown.mouseover" end="arrowDown.mouseout"/>
                  </use>
                  <path fill="none" stroke="white" stroke-width="1.5" d="M0,-3.0v7 M-2.5,-0.5L0,-3.0L2.5,-0.5"/>
                </g>
                <g id="arrowLeft" xlink:href="#dirArrow" transform="rotate(270) translate(-36 17)" onmousedown="handlePan(-1,0)">
                  <use xlink:href="#rim" fill="#404040">
                        <set attributeName="fill" to="#808080" begin="arrowLeft.mouseover" end="arrowLeft.mouseout"/>
                  </use>
                  <path fill="none" stroke="white" stroke-width="1.5" d="M0,-3.0v7 M-2.5,-0.5L0,-3.0L2.5,-0.5"/>
                </g>
        </g>
        <svg viewBox="0 0 15 15" width="100%" height="30px" preserveAspectRatio="xMaxYMin meet">
         <g id="arrow_out" transform="scale(0.3 0.3)">
          <a xlink:href="_vector___py_bind___module_8cpp__incl_org.svg" target="_base">
           <rect id="button" ry="5" rx="5" y="6" x="6" height="38" width="38"
                fill="#f2f5e9" fill-opacity="0.5" stroke="#606060" stroke-width="1.0"/>
           <path id="arrow"
             d="M 11.500037,31.436501 C 11.940474,20.09759 22.043105,11.32322 32.158766,21.979434 L 37.068811,17.246167 C 37.068811,17.246167 37.088388,32 37.088388,32 L 22.160133,31.978069 C 22.160133,31.978069 26.997745,27.140456 26.997745,27.140456 C 18.528582,18.264221 13.291696,25.230495 11.500037,31.436501 z"
             style="fill:#404040;"/>
          </a>
         </g>
        </svg>
</svg>
