<?xml version="1.0" encoding="UTF-8" standalone="no"?>
<!DOCTYPE svg PUBLIC "-//W3C//DTD SVG 1.1//EN"
 "http://www.w3.org/Graphics/SVG/1.1/DTD/svg11.dtd">
<!-- Generated by graphviz version 2.43.0 (0)
 -->
<!-- Title: Vector Pages: 1 -->
<svg width="134pt" height="116pt"
 viewBox="0.00 0.00 134.00 116.00" xmlns="http://www.w3.org/2000/svg" xmlns:xlink="http://www.w3.org/1999/xlink">
<g id="graph0" class="graph" transform="scale(1 1) rotate(0) translate(4 112)">
<title>Vector</title>
<!-- dir_d2653df67fea485f1bf2e407794c9984 -->
<g id="node1" class="node">
<title>dir_d2653df67fea485f1bf2e407794c9984</title>
<g id="a_node1"><a xlink:href="dir_d2653df67fea485f1bf2e407794c9984.html" target="_top" xlink:title="Vector">
<polygon fill="#eeeeff" stroke="black" points="90,-108 36,-108 36,-72 90,-72 90,-108"/>
<text text-anchor="middle" x="63" y="-87.5" font-family="Helvetica,sans-Serif" font-size="10.00">Vector</text>
</a>
</g>
</g>
<!-- dir_3813464283bee2267f39dcf080a84d74 -->
<g id="node2" class="node">
<title>dir_3813464283bee2267f39dcf080a84d74</title>
<g id="a_node2"><a xlink:href="dir_3813464283bee2267f39dcf080a84d74.html" target="_top" xlink:title="Math">
<polygon fill="none" stroke="black" points="54,-36 0,-36 0,0 54,0 54,-36"/>
<text text-anchor="middle" x="27" y="-15.5" font-family="Helvetica,sans-Serif" font-size="10.00">Math</text>
</a>
</g>
</g>
<!-- dir_d2653df67fea485f1bf2e407794c9984&#45;&gt;dir_3813464283bee2267f39dcf080a84d74 -->
<g id="edge1" class="edge">
<title>dir_d2653df67fea485f1bf2e407794c9984&#45;&gt;dir_3813464283bee2267f39dcf080a84d74</title>
<path fill="none" stroke="black" d="M54.1,-71.7C50,-63.73 45.05,-54.1 40.51,-45.26"/>
<polygon fill="black" stroke="black" points="43.48,-43.4 35.8,-36.1 37.26,-46.6 43.48,-43.4"/>
<g id="a_edge1&#45;headlabel"><a xlink:href="dir_000003_000002.html" target="_top" xlink:title="2">
<text text-anchor="middle" x="47.65" y="-42.79" font-family="Helvetica,sans-Serif" font-size="10.00">2</text>
</a>
</g>
</g>
<!-- dir_737e998198a830156af4433d00da986d -->
<g id="node3" class="node">
<title>dir_737e998198a830156af4433d00da986d</title>
<g id="a_node3"><a xlink:href="dir_737e998198a830156af4433d00da986d.html" target="_top" xlink:title="Device">
<polygon fill="none" stroke="black" points="126,-36 72,-36 72,0 126,0 126,-36"/>
<text text-anchor="middle" x="99" y="-15.5" font-family="Helvetica,sans-Serif" font-size="10.00">Device</text>
</a>
</g>
</g>
<!-- dir_d2653df67fea485f1bf2e407794c9984&#45;&gt;dir_737e998198a830156af4433d00da986d -->
<g id="edge2" class="edge">
<title>dir_d2653df67fea485f1bf2e407794c9984&#45;&gt;dir_737e998198a830156af4433d00da986d</title>
<path fill="none" stroke="black" d="M71.9,-71.7C76,-63.73 80.95,-54.1 85.49,-45.26"/>
<polygon fill="black" stroke="black" points="88.74,-46.6 90.2,-36.1 82.52,-43.4 88.74,-46.6"/>
<g id="a_edge2&#45;headlabel"><a xlink:href="dir_000003_000001.html" target="_top" xlink:title="2">
<text text-anchor="middle" x="89.62" y="-48.59" font-family="Helvetica,sans-Serif" font-size="10.00">2</text>
</a>
</g>
</g>
</g>
</svg>
